<?xml version="1.0" encoding="utf-8"?>
<!-- Generator: Adobe Illustrator 19.0.0, SVG Export Plug-In . SVG Version: 6.00 Build 0)  -->
<svg version="1.1" id="Layer_1" xmlns="http://www.w3.org/2000/svg" xmlns:xlink="http://www.w3.org/1999/xlink" x="0px" y="0px"
	 width="512px" height="512px" viewBox="0 0 512 512" enable-background="new 0 0 512 512" xml:space="preserve">
<g>
	<path id="XMLID_4_" fill="#0076BE" d="M362.9,368.9c0.3-0.3,0.6-0.7,0.8-1c0.3-0.4,0.5-0.7,0.7-1.1c0.2-0.3,0.4-0.7,0.5-1
		c0.2-0.5,0.4-0.9,0.5-1.4c0.1-0.2,0.2-0.4,0.2-0.6l73.8-275.3c0.1-0.2,0.1-0.5,0.1-0.7c0.1-0.5,0.2-0.9,0.2-1.4
		c0.1-0.4,0.1-0.8,0.1-1.2c0-0.4,0-0.8-0.1-1.2c0-0.5-0.1-0.9-0.2-1.4c-0.1-0.2-0.1-0.5-0.1-0.7c0-0.1-0.1-0.3-0.1-0.4
		c-0.1-0.4-0.3-0.9-0.5-1.3c-0.2-0.4-0.3-0.7-0.5-1.1c-0.2-0.4-0.5-0.7-0.7-1.1c-0.2-0.3-0.4-0.7-0.7-1c-0.3-0.3-0.6-0.6-0.9-1
		c-0.3-0.3-0.5-0.6-0.8-0.8c-0.3-0.3-0.7-0.5-1.1-0.8c-0.3-0.2-0.6-0.4-1-0.6c-0.4-0.2-0.8-0.4-1.2-0.5c-0.4-0.2-0.8-0.3-1.2-0.5
		c-0.1,0-0.3-0.1-0.4-0.2c-0.3-0.1-0.5-0.1-0.8-0.1c-0.4-0.1-0.9-0.2-1.3-0.2c-0.4,0-0.9-0.1-1.3-0.1c-0.4,0-0.8,0-1.1,0
		c-0.5,0-1,0.1-1.5,0.2c-0.2,0-0.4,0-0.6,0.1l-275.3,73.8c-0.2,0.1-0.4,0.2-0.7,0.3c-0.5,0.1-0.9,0.3-1.3,0.5
		c-0.4,0.2-0.7,0.4-1.1,0.6c-0.4,0.2-0.7,0.4-1.1,0.7c-0.4,0.3-0.7,0.6-1.1,0.9c-0.2,0.2-0.4,0.3-0.6,0.5c-0.1,0.1-0.2,0.2-0.3,0.3
		c-0.3,0.3-0.6,0.7-0.9,1.1c-0.2,0.3-0.5,0.6-0.7,1c-0.2,0.4-0.4,0.7-0.6,1.1c-0.2,0.4-0.4,0.7-0.5,1.1c-0.2,0.4-0.3,0.8-0.4,1.2
		c-0.1,0.4-0.2,0.8-0.3,1.2c-0.1,0.4-0.1,0.9-0.1,1.3c0,0.4-0.1,0.8,0,1.2c0,0.4,0.1,0.8,0.1,1.2c0.1,0.4,0.1,0.9,0.2,1.3
		c0,0.1,0,0.3,0.1,0.4c0.1,0.2,0.2,0.5,0.3,0.7c0.1,0.4,0.3,0.8,0.5,1.3c0.2,0.4,0.4,0.8,0.6,1.2c0.2,0.3,0.4,0.7,0.6,1
		c0.3,0.4,0.6,0.8,0.9,1.1c0.2,0.2,0.3,0.4,0.4,0.5l45.8,45.8l45.8,45.8l18.3,18.3l9.2-9.2c5.1-5.1,5.1-13.3,0-18.3l-54.1-54.1
		l-30.8-30.8l232-62.2l-62.2,232l-30.8-30.8c-2.5,3.5-5.2,6.9-8.3,10l-9.2,9.2l45.8,45.8c0.2,0.2,0.4,0.3,0.6,0.5
		c0.3,0.3,0.7,0.6,1.1,0.9c0.3,0.2,0.7,0.5,1.1,0.7c0.4,0.2,0.7,0.4,1.1,0.6c0.4,0.2,0.9,0.3,1.3,0.5c0.2,0.1,0.4,0.2,0.7,0.3
		c0.1,0,0.3,0,0.4,0.1c0.5,0.1,0.9,0.2,1.4,0.2c0.4,0.1,0.8,0.1,1.2,0.1c0.4,0,0.9,0,1.3-0.1c0.4,0,0.8,0,1.2-0.1
		c0.4-0.1,0.9-0.2,1.3-0.3c0.4-0.1,0.7-0.2,1.1-0.3c0.4-0.2,0.8-0.4,1.2-0.6c0.3-0.2,0.7-0.3,1-0.5c0.4-0.2,0.7-0.5,1-0.7
		c0.4-0.3,0.7-0.5,1-0.8c0.1-0.1,0.2-0.2,0.4-0.3C362.6,369.3,362.7,369.1,362.9,368.9z"/>
	<path id="XMLID_3_" fill="#00ACCD" d="M227.1,330.3c-2.2-10.8-7.5-21.1-15.9-29.5c-5.1-5.1-13.3-5.1-18.3,0
		c-5.1,5.1-5.1,13.3,0,18.3c6.4,6.4,9.5,14.8,9.5,23.2c-0.1,8.2-3.2,16.4-9.5,22.6l-2.2,2.2L175,382.8l-32.5,32.5
		c-12.7,12.7-33.2,12.7-45.8,0c-12.7-12.7-12.7-33.2,0-45.8l32.5-32.5c-3.8-10.3-5.4-21.2-4.7-32l-46.2,46.2
		c-22.8,22.8-22.8,59.7,0,82.5c22.8,22.8,59.7,22.8,82.4,0l46.2-46.2l4.2-4.2c5.7-5.7,10-12.3,12.8-19.3
		C228.4,353.2,229.4,341.5,227.1,330.3z"/>
	<path id="XMLID_2_" fill="#00ACCD" d="M165,264.5l-4.2,4.2c-5.7,5.7-9.9,12.3-12.8,19.3c-4.4,10.7-5.4,22.5-3.1,33.7
		c2.2,10.8,7.5,21.1,15.9,29.5c5.1,5.1,13.3,5.1,18.3,0c5.1-5.1,5.1-13.3,0-18.3c-6.4-6.4-9.5-14.8-9.5-23.2
		c0.1-8.2,3.2-16.4,9.5-22.6l2.2-2.2l15.7-15.7l9.6-9.6l-18.3-18.3L165,264.5z"/>
	<path id="XMLID_1_" fill="#00ACCD" d="M293.7,218.3c-14.3-14.3-34.1-19.6-52.6-15.9l34.3,34.3c12.7,12.7,12.7,33.2,0,45.8
		L242.8,315c3.8,10.3,5.4,21.2,4.7,32l46.2-46.2C316.4,278,316.4,241.1,293.7,218.3z"/>
</g>
</svg>
